# xmcd
#
# Track frame offsets: 
#        150
#        14649
#        29892
#        45140
#        59025
#        71078
#        89864
#        101396
#        118949
#        127599
#        140926
#        155773
#        171645
#        182971
#
# Disc length: 2529 seconds
#
# Revision: 3
# Processed by: cddbd v1.5.2PL0 Copyright (c) Steve Scherf et al.
# Submitted via: ExactAudioCopy v1.0b3
#
DISCID=dd09df0e
DTITLE=Various Artist - The first ladies of Christmas
DYEAR=2004
DGENRE=Weihnachtsmusik
TTITLE0=Loretta Lynn - Deck the halls
TTITLE1=Louise Mandrell - Silent night
TTITLE2=Brenda Lee - O come all ye faithful
TTITLE3=Crystal Gayle - Hallelujah
TTITLE4=Kim Carnes - O little town of Bethlehem
TTITLE5=Rosemary Clooney - Have yourself a merry little Christmas
TTITLE6=Donna Fargo - Jingle, bells
TTITLE7=Jeannie C. Riley - Joy to the world
TTITLE8=Melba Montgomery - O Christmas tree
TTITLE9=Sandy Posey - It came upon the midnight clear
TTITLE10=Loretta Lynn - Away in a manger
TTITLE11=Crystal Gayle - What child is this
TTITLE12=Melba Montgomery - Hark! The herald angels sing
TTITLE13=Margo Smith - We wish you a merry Christmas
EXTD=
EXTT0=
EXTT1=
EXTT2=
EXTT3=
EXTT4=
EXTT5=
EXTT6=
EXTT7=
EXTT8=
EXTT9=
EXTT10=
EXTT11=
EXTT12=
EXTT13=
PLAYORDER=
